<svg xmlns="http://www.w3.org/2000/svg" width="227" height="44" fill="none" viewBox="0 0 227 44">
  <path fill="#F6E8DB" d="M5.602 37.502c-1.38 0-2.33-.307-2.852-.92-.521-.613-.782-1.395-.782-2.346 0-.89.184-1.947.552-3.174a80.273 80.273 0 0 1 1.15-3.542c.521-1.503 1.15-3.266 1.886-5.29s1.518-4.14 2.346-6.348a730.746 730.746 0 0 1 2.576-6.532c.89-2.147 1.748-4.094 2.576-5.842-2.116.03-3.895.077-5.336.138-1.41.061-2.683.153-3.818.276a38.24 38.24 0 0 0-3.726.506c.092-1.043.629-1.855 1.61-2.438.981-.583 2.3-.997 3.956-1.242C7.396.503 9.282.38 11.398.38c2.116 0 4.002.092 5.658.276 1.687.153 3.266.307 4.738.46 1.472.153 2.944.245 4.416.276-1.043.95-2.239 1.549-3.588 1.794-1.35.245-2.775.368-4.278.368h-1.058c-.368-.03-.736-.046-1.104-.046h-1.104c-.981 2.453-2.116 5.55-3.404 9.292-1.257 3.741-2.53 7.958-3.818 12.65-.43 1.625-.828 3.082-1.196 4.37a62.363 62.363 0 0 0-.828 3.542 18.503 18.503 0 0 0-.276 3.128v.506c0 .184.015.353.046.506Zm13.577-2.806c-1.196 0-2.085-.383-2.668-1.15-.582-.736-.874-1.64-.874-2.714 0-.705.123-1.595.368-2.668a34.842 34.842 0 0 1 1.058-3.358 25.9 25.9 0 0 1 1.472-3.358c.583-1.043 1.196-1.886 1.84-2.53.644-.675 1.273-1.012 1.886-1.012.276 0 .506.092.69.276.215.153.322.399.322.736 0 .368-.245.966-.736 1.794a99.959 99.959 0 0 1-1.656 2.852 25.182 25.182 0 0 0-1.702 3.404c-.46 1.165-.69 2.285-.69 3.358 0 1.104.184 1.84.552 2.208.368.368.936.552 1.702.552 1.043 0 2.147-.521 3.312-1.564 1.196-1.043 2.454-2.867 3.772-5.474l.414.46c-.89 2.637-2.177 4.661-3.864 6.072-1.656 1.41-3.389 2.116-5.198 2.116Zm5.52-21.068a2.5 2.5 0 0 1-1.334-.368c-.368-.245-.552-.629-.552-1.15 0-.644.368-1.196 1.104-1.656.767-.49 1.518-.736 2.254-.736.46 0 .828.107 1.104.322.276.215.414.583.414 1.104 0 .583-.322 1.15-.966 1.702-.613.521-1.288.782-2.024.782Zm7.232 21.896c-1.87 0-3.281-.521-4.232-1.564-.92-1.012-1.38-2.27-1.38-3.772 0-1.38.337-2.837 1.012-4.37a19.113 19.113 0 0 1 2.76-4.324c1.165-1.35 2.438-2.438 3.818-3.266 1.38-.859 2.745-1.288 4.094-1.288.705 0 1.35.184 1.932.552.613.368.92 1.12.92 2.254 0 1.165-.353 2.27-1.058 3.312-.675 1.012-1.58 1.917-2.714 2.714a16.26 16.26 0 0 1-3.68 1.978c-1.319.49-2.637.797-3.956.92a10.52 10.52 0 0 0-.138.874 7.09 7.09 0 0 0-.046.782c0 .46.046.92.138 1.38.123.46.322.89.598 1.288.276.368.644.66 1.104.874.49.215 1.089.322 1.794.322 1.319 0 2.622-.368 3.91-1.104 1.288-.767 2.484-1.763 3.588-2.99a19.473 19.473 0 0 0 2.806-4.048l.552.414c-.828 1.84-1.886 3.435-3.174 4.784-1.257 1.35-2.637 2.392-4.14 3.128-1.472.767-2.975 1.15-4.508 1.15Zm-2.254-7.728c.828-.276 1.763-.675 2.806-1.196a20.697 20.697 0 0 0 2.99-1.932c.981-.736 1.779-1.549 2.392-2.438.644-.89.966-1.825.966-2.806 0-.337-.061-.598-.184-.782-.123-.184-.383-.276-.782-.276-.736 0-1.518.291-2.346.874-.828.552-1.625 1.288-2.392 2.208a19.574 19.574 0 0 0-2.07 3.036 15.207 15.207 0 0 0-1.38 3.312ZM43.523 14.64c-.43-.89-.92-1.64-1.472-2.254a23.112 23.112 0 0 0-1.932-1.978c-.95.337-1.81.705-2.576 1.104-.736.399-1.457.905-2.162 1.518-.184-.123-.307-.26-.368-.414a1.514 1.514 0 0 1-.092-.46c0-.46.2-.92.598-1.38.43-.46.935-.89 1.518-1.288a9.748 9.748 0 0 1 1.794-1.012c.583-.245 1.027-.368 1.334-.368.368 0 .782.169 1.242.506.49.337.95.782 1.38 1.334a7.92 7.92 0 0 1 1.058 1.656c.307.583.46 1.12.46 1.61 0 .307-.061.583-.184.828a1.405 1.405 0 0 1-.598.598Zm-12.65 28.842c-.552 0-.997-.138-1.334-.414-.337-.245-.506-.613-.506-1.104 0-.675.322-1.227.966-1.656.675-.399 1.35-.598 2.024-.598.521 0 .92.123 1.196.368.276.276.414.66.414 1.15 0 .583-.291 1.104-.874 1.564-.583.46-1.211.69-1.886.69Zm34.592-8.556c-1.073 0-1.855-.337-2.346-1.012-.49-.644-.736-1.426-.736-2.346 0-.767.108-1.533.322-2.3.246-.767.476-1.518.69-2.254.246-.736.368-1.395.368-1.978 0-.613-.138-1.043-.414-1.288a1.353 1.353 0 0 0-.92-.368c-.766 0-1.61.598-2.53 1.794-.89 1.196-2.054 2.883-3.496 5.06-.49.736-.904 1.487-1.242 2.254a68.12 68.12 0 0 1-.966 2.024c-.245 0-.552-.03-.92-.092a3.555 3.555 0 0 1-1.012-.322c-.276-.123-.414-.291-.414-.506 0-.215.138-.72.414-1.518.307-.828.644-1.779 1.012-2.852a34.117 34.117 0 0 0 1.012-3.312c.307-1.135.46-2.1.46-2.898 0-.521-.092-.935-.276-1.242-.153-.337-.444-.506-.874-.506-.674 0-1.487.414-2.438 1.242-.95.797-1.932 1.855-2.944 3.174a40.017 40.017 0 0 0-2.898 4.37 29.085 29.085 0 0 0-2.162 4.692c-.276 0-.613-.046-1.012-.138a3.886 3.886 0 0 1-1.012-.368c-.306-.153-.46-.307-.46-.46 0-.184.169-.72.506-1.61.307-.92.675-2.009 1.104-3.266a56.504 56.504 0 0 0 1.058-3.91c.338-1.319.506-2.484.506-3.496.184-.215.476-.43.874-.644a2.586 2.586 0 0 1 1.242-.322c.43 0 .736.107.92.322.215.215.322.506.322.874 0 .399-.122 1.089-.368 2.07-.214.95-.49 2.009-.828 3.174a40.572 40.572 0 0 1 2.07-2.99 28.546 28.546 0 0 1 2.484-2.852c.859-.859 1.718-1.549 2.576-2.07.89-.552 1.748-.828 2.576-.828.95 0 1.595.353 1.932 1.058.368.675.552 1.487.552 2.438 0 .767-.092 1.58-.276 2.438a24.01 24.01 0 0 1-.552 2.346 17.142 17.142 0 0 1-.598 1.702 34.382 34.382 0 0 1 2.116-3.358c.798-1.104 1.656-1.993 2.576-2.668.92-.705 1.902-1.058 2.944-1.058.982 0 1.656.291 2.024.874.399.583.598 1.273.598 2.07 0 .797-.138 1.671-.414 2.622a58.56 58.56 0 0 1-.874 2.76c-.276.89-.414 1.656-.414 2.3 0 .399.092.767.276 1.104.215.307.583.46 1.104.46.859 0 1.656-.383 2.392-1.15.767-.797 1.472-1.748 2.116-2.852a36.467 36.467 0 0 0 1.656-3.266l.552.644a24.89 24.89 0 0 1-1.886 3.864c-.766 1.257-1.671 2.3-2.714 3.128-1.012.828-2.131 1.242-3.358 1.242Zm33.362-.506c-1.074 0-1.886-.276-2.438-.828-.522-.552-.782-1.257-.782-2.116 0-.644.107-1.319.322-2.024.245-.705.475-1.426.69-2.162a8.186 8.186 0 0 0 .322-2.208c0-.859-.184-1.441-.552-1.748-.338-.337-.767-.506-1.288-.506-.95 0-1.917.399-2.898 1.196-.982.767-1.932 1.763-2.852 2.99a44.66 44.66 0 0 0-2.576 3.726 430.567 430.567 0 0 0-2.116 3.45c-.49 0-.95-.092-1.38-.276-.46-.153-.813-.399-1.058-.736 0-.153.168-.629.506-1.426.306-.797.674-1.779 1.104-2.944.43-1.165.812-2.361 1.15-3.588.337-1.227.506-2.346.506-3.358.184-.215.475-.43.874-.644a2.586 2.586 0 0 1 1.242-.322c.828 0 1.242.399 1.242 1.196 0 .49-.138 1.319-.414 2.484a41.489 41.489 0 0 1-1.058 3.588 43.18 43.18 0 0 1 2.76-3.726c1.042-1.257 2.146-2.3 3.312-3.128 1.165-.828 2.33-1.242 3.496-1.242 1.196 0 2.054.43 2.576 1.288.552.859.828 1.81.828 2.852 0 .95-.154 1.84-.46 2.668a53.72 53.72 0 0 1-.966 2.346 5.81 5.81 0 0 0-.46 2.254c0 .644.122 1.104.368 1.38a1.47 1.47 0 0 0 1.012.368c.766 0 1.533-.353 2.3-1.058.766-.736 1.502-1.656 2.208-2.76a28.65 28.65 0 0 0 1.932-3.358l.506.598c-.644 1.503-1.365 2.837-2.162 4.002-.798 1.165-1.672 2.085-2.622 2.76a5.36 5.36 0 0 1-3.174 1.012Zm8.731.828c-.582 0-1.042-.49-1.38-1.472-.337-.981-.506-2.085-.506-3.312 0-1.472.246-3.22.736-5.244a64.404 64.404 0 0 1 1.932-6.394 82.307 82.307 0 0 1 2.668-6.578 68.352 68.352 0 0 1 3.082-5.842c1.043-1.748 2.024-3.143 2.944-4.186.92-1.043 1.718-1.564 2.392-1.564.552 0 .936.337 1.15 1.012.246.644.368 1.273.368 1.886 0 .859-.199 1.901-.598 3.128-.368 1.227-.889 2.545-1.564 3.956a36.65 36.65 0 0 1-2.346 4.094 29.364 29.364 0 0 1-2.898 3.726c-1.042 1.104-2.1 1.978-3.174 2.622-.368.89-.69 1.886-.966 2.99a31.77 31.77 0 0 0-.552 3.266 24.41 24.41 0 0 0-.184 2.806v.874c.031.245.062.475.092.69.43-1.257.89-2.469 1.38-3.634a29.672 29.672 0 0 1 1.656-3.266c.583-1.012 1.196-1.886 1.84-2.622.675-.767 1.38-1.35 2.116-1.748a4.583 4.583 0 0 1 2.346-.644c.859 0 1.534.215 2.024.644.522.399.89.92 1.104 1.564a5.14 5.14 0 0 1 .368 1.932c0 .95-.168 1.87-.506 2.76-.306.89-.628 1.748-.966 2.576-.337.828-.506 1.625-.506 2.392 0 .613.123 1.058.368 1.334.276.276.614.414 1.012.414.706 0 1.488-.337 2.346-1.012.89-.675 1.764-1.564 2.622-2.668a20.145 20.145 0 0 0 2.208-3.68l.598.552a19.767 19.767 0 0 1-2.346 4.094c-.92 1.196-1.932 2.147-3.036 2.852-1.104.705-2.254 1.058-3.45 1.058-1.042 0-1.84-.276-2.392-.828-.521-.552-.782-1.242-.782-2.07 0-.644.123-1.365.368-2.162.246-.797.476-1.61.69-2.438.246-.828.368-1.61.368-2.346 0-.797-.168-1.365-.506-1.702a1.688 1.688 0 0 0-1.242-.506c-.766 0-1.456.307-2.07.92-.613.613-1.18 1.41-1.702 2.392-.49.95-.966 1.963-1.426 3.036-.429 1.073-.843 2.1-1.242 3.082-.398.95-.797 1.733-1.196 2.346-.398.613-.812.92-1.242.92Zm3.404-15.962c.859-.675 1.687-1.533 2.484-2.576a31.733 31.733 0 0 0 2.3-3.312 49.41 49.41 0 0 0 1.886-3.496c.552-1.135.982-2.162 1.288-3.082.307-.92.46-1.61.46-2.07 0-.153-.015-.245-.046-.276-.03-.061-.076-.092-.138-.092-.214 0-.659.43-1.334 1.288-.644.828-1.395 1.947-2.254 3.358a49.113 49.113 0 0 0-2.53 4.784 43.92 43.92 0 0 0-2.116 5.474Zm18.519 16.376c-.95 0-1.748-.322-2.392-.966-.674-.613-1.012-1.564-1.012-2.852 0-1.104.246-2.285.736-3.542a17.393 17.393 0 0 1 2.024-3.772 20.75 20.75 0 0 1 2.898-3.404c1.104-1.043 2.254-1.87 3.45-2.484 1.227-.613 2.438-.92 3.634-.92 1.196 0 2.193.322 2.99.966.798.613 1.196 1.441 1.196 2.484 0 .767-.214 1.288-.644 1.564-.398.276-.935.414-1.61.414a5.7 5.7 0 0 0 .138-.782c.062-.307.092-.583.092-.828 0-.705-.168-1.303-.506-1.794-.337-.521-.92-.782-1.748-.782-.858 0-1.732.307-2.622.92-.889.583-1.748 1.38-2.576 2.392a19.91 19.91 0 0 0-2.208 3.22 19.737 19.737 0 0 0-1.518 3.45c-.368 1.135-.552 2.147-.552 3.036 0 1.196.414 1.794 1.242 1.794.706 0 1.472-.322 2.3-.966.828-.675 1.672-1.518 2.53-2.53a50.379 50.379 0 0 0 2.53-3.22 97.78 97.78 0 0 0 2.116-3.036c.123-.184.2-.276.23-.276.184.03.414.092.69.184.307.092.568.215.782.368a.704.704 0 0 1 .322.598c0 .276-.138.66-.414 1.15-.276.46-.582.997-.92 1.61a21.508 21.508 0 0 0-.92 1.886c-.276.613-.414 1.196-.414 1.748 0 .46.123.92.368 1.38.246.43.644.644 1.196.644.828 0 1.917-.598 3.266-1.794 1.35-1.227 2.714-3.051 4.094-5.474l.46.46c-.644 1.656-1.472 3.113-2.484 4.37-1.012 1.257-2.1 2.239-3.266 2.944-1.134.705-2.254 1.058-3.358 1.058-1.134 0-1.978-.337-2.53-1.012-.521-.675-.782-1.41-.782-2.208 0-.184.016-.383.046-.598l.092-.736c-1.318 1.779-2.53 3.113-3.634 4.002-1.073.89-2.177 1.334-3.312 1.334Zm12.742-21.022a29.164 29.164 0 0 0-2.254-2.622 43.16 43.16 0 0 0-2.898-2.714c.062-.552.184-.92.368-1.104.184-.215.399-.322.644-.322.46 0 .966.23 1.518.69a9.352 9.352 0 0 1 1.564 1.702c.491.644.89 1.273 1.196 1.886.338.583.506 1.012.506 1.288 0 .123-.046.322-.138.598a.985.985 0 0 1-.506.598Zm26.373 22.862c-1.656 0-3.22-.307-4.692-.92-1.472-.583-2.668-1.487-3.588-2.714-.89-1.227-1.334-2.76-1.334-4.6 0-1.595.306-2.837.92-3.726.644-.89 1.426-1.518 2.346-1.886.92-.368 1.794-.552 2.622-.552a9.442 9.442 0 0 0-1.886 2.944 8.6 8.6 0 0 0-.644 3.22c0 1.135.245 2.193.736 3.174.521.981 1.303 1.763 2.346 2.346 1.042.613 2.361.92 3.956.92 1.38 0 2.729-.26 4.048-.782 1.318-.49 2.392-1.227 3.22-2.208.858-1.012 1.288-2.254 1.288-3.726 0-1.319-.338-2.453-1.012-3.404-.675-.95-1.549-1.794-2.622-2.53a39.367 39.367 0 0 0-3.358-2.116 45.783 45.783 0 0 1-3.404-2.116c-1.043-.767-1.902-1.64-2.576-2.622-.675-.981-1.012-2.162-1.012-3.542 0-1.288.306-2.637.92-4.048.613-1.41 1.487-2.745 2.622-4.002a13.638 13.638 0 0 1 4.14-3.036C173.257.779 175.066.38 177.06.38c1.809 0 3.066.445 3.772 1.334.705.859 1.058 1.947 1.058 3.266 0 1.104-.2 2.3-.598 3.588a24.645 24.645 0 0 1-1.38 3.634 34.036 34.036 0 0 1-1.564 2.898c-.552-.123-.951-.353-1.196-.69-.215-.368-.322-.797-.322-1.288 0-.644.138-1.38.414-2.208.276-.828.582-1.687.92-2.576.368-.89.69-1.748.966-2.576.276-.859.414-1.625.414-2.3 0-.613-.184-1.089-.552-1.426-.368-.368-1.043-.552-2.024-.552a8.166 8.166 0 0 0-4.002 1.012 11.522 11.522 0 0 0-3.22 2.622c-.92 1.043-1.641 2.147-2.162 3.312-.491 1.165-.736 2.223-.736 3.174 0 1.135.322 2.116.966 2.944.674.797 1.533 1.533 2.576 2.208a133.2 133.2 0 0 0 3.312 1.978 25.15 25.15 0 0 1 3.358 2.162 9.759 9.759 0 0 1 2.53 2.852c.674 1.073 1.012 2.392 1.012 3.956 0 1.595-.353 3.005-1.058 4.232-.706 1.196-1.656 2.208-2.852 3.036a13.33 13.33 0 0 1-3.864 1.886c-1.411.43-2.822.644-4.232.644Zm17.532-1.84c-.951 0-1.748-.322-2.392-.966-.675-.613-1.012-1.564-1.012-2.852 0-1.104.245-2.285.736-3.542a17.35 17.35 0 0 1 2.024-3.772 20.75 20.75 0 0 1 2.898-3.404c1.104-1.043 2.254-1.87 3.45-2.484 1.227-.613 2.438-.92 3.634-.92 1.196 0 2.193.322 2.99.966.797.613 1.196 1.441 1.196 2.484 0 .767-.215 1.288-.644 1.564-.399.276-.935.414-1.61.414a6.03 6.03 0 0 0 .138-.782 4.29 4.29 0 0 0 .092-.828c0-.705-.169-1.303-.506-1.794-.337-.521-.92-.782-1.748-.782-.859 0-1.733.307-2.622.92-.889.583-1.748 1.38-2.576 2.392a19.91 19.91 0 0 0-2.208 3.22 19.737 19.737 0 0 0-1.518 3.45c-.368 1.135-.552 2.147-.552 3.036 0 1.196.414 1.794 1.242 1.794.705 0 1.472-.322 2.3-.966.828-.675 1.671-1.518 2.53-2.53a50.738 50.738 0 0 0 2.53-3.22 99.534 99.534 0 0 0 2.116-3.036c.123-.184.199-.276.23-.276.184.03.414.092.69.184.307.092.567.215.782.368a.704.704 0 0 1 .322.598c0 .276-.138.66-.414 1.15-.276.46-.583.997-.92 1.61a21.508 21.508 0 0 0-.92 1.886c-.276.613-.414 1.196-.414 1.748 0 .46.123.92.368 1.38.245.43.644.644 1.196.644.828 0 1.917-.598 3.266-1.794 1.349-1.227 2.714-3.051 4.094-5.474l.46.46c-.644 1.656-1.472 3.113-2.484 4.37-1.012 1.257-2.101 2.239-3.266 2.944-1.135.705-2.254 1.058-3.358 1.058-1.135 0-1.978-.337-2.53-1.012-.521-.675-.782-1.41-.782-2.208a4.2 4.2 0 0 1 .046-.598l.092-.736c-1.319 1.779-2.53 3.113-3.634 4.002-1.073.89-2.177 1.334-3.312 1.334Zm12.236-19.458c-1.165 0-2.101-.23-2.806-.69-.675-.49-1.165-1.058-1.472-1.702-.307-.675-.46-1.288-.46-1.84s.092-1.012.276-1.38a2.52 2.52 0 0 1 .828-.874 6.506 6.506 0 0 0 .966 2.898c.583.859 1.503 1.288 2.76 1.288 1.165 0 2.101-.291 2.806-.874.705-.613 1.242-1.242 1.61-1.886.184.184.307.414.368.69.061.245.092.475.092.69 0 1.043-.506 1.917-1.518 2.622-.981.705-2.131 1.058-3.45 1.058Zm.506-4.876a1.66 1.66 0 0 1-.69-.598 1.382 1.382 0 0 1-.23-.736c0-.307.138-.705.414-1.196a8 8 0 0 1 1.058-1.518c.429-.521.874-.95 1.334-1.288.491-.337.935-.506 1.334-.506.245 0 .46.107.644.322.215.184.337.552.368 1.104a87.15 87.15 0 0 0-1.656 1.518c-.491.49-.951.981-1.38 1.472-.429.46-.828.935-1.196 1.426Zm19.943 23.092c-1.073 0-1.886-.276-2.438-.828-.521-.552-.782-1.257-.782-2.116 0-.644.107-1.319.322-2.024.245-.705.475-1.426.69-2.162a8.17 8.17 0 0 0 .322-2.208c0-.859-.184-1.441-.552-1.748-.337-.337-.767-.506-1.288-.506-.951 0-1.917.399-2.898 1.196-.981.767-1.932 1.763-2.852 2.99a44.588 44.588 0 0 0-2.576 3.726 433.492 433.492 0 0 0-2.116 3.45c-.491 0-.951-.092-1.38-.276-.46-.153-.813-.399-1.058-.736 0-.153.169-.629.506-1.426.307-.797.675-1.779 1.104-2.944a44.514 44.514 0 0 0 1.15-3.588c.337-1.227.506-2.346.506-3.358.184-.215.475-.43.874-.644a2.588 2.588 0 0 1 1.242-.322c.828 0 1.242.399 1.242 1.196 0 .49-.138 1.319-.414 2.484a41.595 41.595 0 0 1-1.058 3.588 43.18 43.18 0 0 1 2.76-3.726c1.043-1.257 2.147-2.3 3.312-3.128 1.165-.828 2.331-1.242 3.496-1.242 1.196 0 2.055.43 2.576 1.288.552.859.828 1.81.828 2.852 0 .95-.153 1.84-.46 2.668-.307.797-.629 1.58-.966 2.346a5.804 5.804 0 0 0-.46 2.254c0 .644.123 1.104.368 1.38a1.47 1.47 0 0 0 1.012.368c.767 0 1.533-.353 2.3-1.058.767-.736 1.503-1.656 2.208-2.76a28.65 28.65 0 0 0 1.932-3.358l.506.598c-.644 1.503-1.365 2.837-2.162 4.002-.797 1.165-1.671 2.085-2.622 2.76a5.36 5.36 0 0 1-3.174 1.012Z"/>
</svg>
